<?xml version="1.0" standalone="no"?><!DOCTYPE svg PUBLIC "-//W3C//DTD SVG 1.1//EN" "http://www.w3.org/Graphics/SVG/1.1/DTD/svg11.dtd"><svg class="icon" width="20px" height="20.00px" viewBox="0 0 1024 1024" version="1.1" xmlns="http://www.w3.org/2000/svg"><path d="M878.135737 77.710105 145.811961 77.710105C78.401577 77.710105 23.762458 131.22292 23.762458 197.274684l0 478.770386c0 65.993382 41.083334 126.020758 108.498583 126.020758L385.420347 802.065828 512.001824 946.93454l126.577828-144.867496 253.159306 0c67.410384 0 108.498583-60.028593 108.498583-126.020758L1000.237542 197.274684C1000.236325 131.23265 945.54977 77.710105 878.135737 77.710105zM258.834004 504.401706c-29.956522 0-54.240169-24.306757-54.240169-54.348421 0-29.999093 24.283648-54.302201 54.240169-54.302201 29.965036 0 54.253549 24.303108 54.253549 54.302201C313.082688 480.090083 288.79904 504.401706 258.834004 504.401706zM512.001824 504.401706c-29.966252 0-54.248683-24.306757-54.248683-54.348421 0-29.999093 24.282431-54.302201 54.248683-54.302201 29.961387 0 54.2499 24.303108 54.2499 54.302201C566.251724 480.090083 541.963211 504.401706 512.001824 504.401706zM765.156265 504.401706c-29.971117 0-54.2499-24.306757-54.2499-54.348421 0-29.999093 24.278782-54.302201 54.2499-54.302201 29.966252 0 54.2499 24.303108 54.2499 54.302201C819.409814 480.090083 795.122517 504.401706 765.156265 504.401706z" /></svg>