<?xml version="1.0" standalone="no"?><!DOCTYPE svg PUBLIC "-//W3C//DTD SVG 1.1//EN" "http://www.w3.org/Graphics/SVG/1.1/DTD/svg11.dtd"><svg class="icon" width="20px" height="20.00px" viewBox="0 0 1024 1024" version="1.1" xmlns="http://www.w3.org/2000/svg"><path d="M837.632 942.08c-6.144 47.104-81.92 75.776-171.008 64.512C578.56 995.328 512 948.224 517.12 901.12c6.144-47.104 81.92-75.776 171.008-64.512 88.064 12.288 154.624 59.392 149.504 105.472zM171.008 937.984c7.168 47.104 86.016 76.8 177.152 67.584 91.136-10.24 159.744-56.32 152.576-103.424-7.168-47.104-86.016-76.8-177.152-67.584-91.136 10.24-159.744 56.32-152.576 103.424z" fill="#e38010" /><path d="M829.44 327.68c0 175.104-143.36 317.44-319.488 317.44S190.464 502.784 190.464 327.68s143.36-317.44 319.488-317.44S829.44 152.576 829.44 327.68z" fill="#040000" /><path d="M167.936 928.768c7.168 47.104 86.016 76.8 177.152 67.584 91.136-10.24 159.744-56.32 152.576-103.424-7.168-47.104-86.016-76.8-177.152-67.584-91.136 10.24-159.744 56.32-152.576 103.424zM840.704 930.816c-6.144 47.104-81.92 75.776-171.008 64.512-88.064-11.264-154.624-58.368-149.504-105.472 6.144-47.104 81.92-75.776 171.008-64.512 89.088 12.288 155.648 59.392 149.504 105.472z" fill="#f4a418" /><path d="M813.056 678.912c0 142.336-138.24 257.024-308.224 257.024S196.608 821.248 196.608 678.912c0-142.336 138.24-257.024 308.224-257.024 171.008 0 308.224 114.688 308.224 257.024z" fill="#040000" /><path d="M247.808 627.712c-45.056 90.112-116.736 147.456-137.216 136.192-27.648-15.36-34.816-106.496 10.24-196.608 45.056-90.112 118.784-148.48 153.6-131.072 34.816 18.432 18.432 100.352-26.624 191.488zM768 638.976c40.96 81.92 101.376 145.408 126.976 140.288 20.48-4.096 34.816-100.352-2.048-192.512-37.888-93.184-107.52-160.768-142.336-143.36-36.864 17.408-28.672 105.472 17.408 195.584z" fill="#040000" /><path d="M279.552 517.12c-19.456 38.912-29.696 82.944-29.696 131.072 0 155.648 117.76 281.6 262.144 281.6 144.384 0 262.144-125.952 262.144-281.6 0-46.08-10.24-89.088-28.672-126.976-134.144 67.584-377.856 17.408-465.92-4.096z" fill="#ffffff" /><path d="M362.496 253.952a76.8 62.464 90 1 0 124.928 0 76.8 62.464 90 1 0-124.928 0Z" fill="#ffffff" /><path d="M542.72 254.976a76.8 62.464 90 1 0 124.928 0 76.8 62.464 90 1 0-124.928 0Z" fill="#ffffff" /><path d="M521.216 352.256c-87.04 0-162.816 20.48-204.8 51.2 10.24 24.576 43.008 44.032 73.728 62.464 37.888 21.504 100.352 36.864 131.072 36.864 28.672 0 100.352-19.456 139.264-45.056 26.624-17.408 55.296-33.792 66.56-54.272-44.032-30.72-119.808-51.2-205.824-51.2z" fill="#f4a418" /><path d="M478.208 254.976c0 26.624-17.408 48.128-38.912 48.128-21.504 0-38.912-21.504-38.912-48.128s17.408-48.128 38.912-48.128c21.504-1.024 38.912 21.504 38.912 48.128z" fill="#040000" /><path d="M463.872 243.712c0 11.264-7.168 19.456-16.384 19.456-9.216 0-16.384-9.216-16.384-19.456 0-11.264 7.168-19.456 16.384-19.456 9.216 0 16.384 8.192 16.384 19.456z" fill="#ffffff" /><path d="M574.464 267.264c-4.096 0-7.168-3.072-7.168-6.144 0-2.048-1.024-5.12-1.024-7.168 0-20.48 14.336-36.864 32.768-36.864 17.408 0 32.768 16.384 32.768 36.864v5.12c-1.024 4.096-4.096 7.168-8.192 7.168-4.096-1.024-7.168-4.096-7.168-8.192v-3.072c0-12.288-7.168-21.504-17.408-21.504-9.216 0-17.408 10.24-17.408 21.504v4.096c1.024 4.096-2.048 8.192-6.144 9.216 0-1.024-1.024-1.024-1.024-1.024z" fill="#040000" /><path d="M346.112 390.144s48.128 40.96 92.16 53.248c51.2 14.336 125.952 7.168 154.624-2.048 51.2-17.408 106.496-54.272 106.496-54.272s-48.128 36.864-98.304 69.632c-24.576 16.384-52.224 39.936-110.592 27.648-14.336-3.072-40.96-20.48-49.152-25.6-41.984-25.6-84.992-58.368-95.232-68.608z" fill="#893322" /><path d="M399.36 609.28v139.264s-57.344 27.648-109.568-21.504c-19.456-18.432 10.24-152.576 10.24-152.576l99.328 34.816z" fill="#d32d19" /><path d="M292.864 582.656l105.472 84.992s2.048-53.248-1.024-67.584c-2.048-15.36-105.472-24.576-105.472-24.576" fill="#b72c22" /><path d="M521.216 633.856c-133.12 0-258.048-47.104-357.376-134.144-2.048-2.048-2.048-9.216-2.048-9.216s4.096-14.336 10.24-50.176c4.096-24.576 14.336-55.296 19.456-55.296 3.072 3.072 7.168 6.144 11.264 10.24 7.168 7.168 14.336 13.312 16.384 16.384 81.92 76.8 188.416 118.784 301.056 118.784s219.136-41.984 301.056-118.784c1.024-1.024 18.432 22.528 26.624 46.08 8.192 25.6 17.408 52.224 9.216 58.368-95.232 75.776-212.992 117.76-335.872 117.76z" fill="#d32d19" /></svg>