<?xml version="1.0" standalone="no"?><!DOCTYPE svg PUBLIC "-//W3C//DTD SVG 1.1//EN" "http://www.w3.org/Graphics/SVG/1.1/DTD/svg11.dtd"><svg class="icon" width="20px" height="20.00px" viewBox="0 0 1024 1024" version="1.1" xmlns="http://www.w3.org/2000/svg"><path d="M516.702895 1023.959955a511.98912 511.98912 0 1 1 507.289791-511.98912c1.279973 281.466019-225.823773 510.672577-507.289791 511.98912z m-101.794409-767.98368c-135.768543 0-246.943324 88.500976-246.943324 200.919159a192.507909 192.507909 0 0 0 98.813901 159.557752l-24.703475 71.093346 86.306737-41.434548c28.378826 6.802141 57.361067 10.751772 86.526161 11.812321 7.716407 0 15.432815-0.329136 23.039511-0.895981a169.504969 169.504969 0 0 1-7.606696-49.534948 198.615208 198.615208 0 0 1 209.91554-186.98574c7.954117 0.036571 15.908233 0.493704 23.807494 1.40797-21.375546-94.973982-127.741285-165.719907-249.155849-165.719907V255.99456z m240.964023 177.184806c-117.446647 0-209.988681 76.798368-209.988681 171.516355 0 94.717987 92.523748 171.443214 209.988681 171.443214a322.333722 322.333722 0 0 0 74.110425-11.830605l67.747132 35.510102-18.559606-59.098173a178.007646 178.007646 0 0 0 86.489591-136.024538c0-94.279139-98.77733-171.077507-209.787542-171.077507v-0.420563z m67.747132 141.967269a23.679497 23.679497 0 1 1 0-47.322423 24.538907 24.538907 0 1 1 0 47.541847v-0.219424z m-135.841685 0a23.679497 23.679497 0 1 1 0-47.322423 24.538907 24.538907 0 1 1 0 47.541847v-0.219424z m-80.290866-159.667464a30.298785 30.298785 0 1 1 0-59.006746 29.622228 29.622228 0 0 1 0 59.22617v-0.219424z m-172.832898 0a30.298785 30.298785 0 1 1 0-59.006746 29.622228 29.622228 0 0 1 0 59.22617v-0.219424z" fill="#11ac36" /></svg>