<?xml version="1.0" standalone="no"?>
<!DOCTYPE svg PUBLIC "-//W3C//DTD SVG 1.1//EN" "http://www.w3.org/Graphics/SVG/1.1/DTD/svg11.dtd" >
<svg xmlns="http://www.w3.org/2000/svg">
<metadata>Generated by IcoMoon</metadata>
<defs>
<font id="icomoon" horiz-adv-x="1024">
<font-face units-per-em="1024" ascent="960" descent="-64" />
<missing-glyph horiz-adv-x="1024" />
<glyph unicode="&#x20;" horiz-adv-x="512" d="" />
<glyph unicode="&#xe900;" glyph-name="dagoukuang" d="M1024-64h-1024v1024h1024v-1024zM128 64h768v768h-768v-768z" />
<glyph unicode="&#xe901;" glyph-name="adidas" d="M1018.514 227.108h-44.642c-1.388 7.401-3.537 12.614-6.474 15.549-4.775 4.775-12.925 7.237-24.171 7.237-11.084 0-18.776-1.84-23.079-5.541-3.242-2.774-4.94-6.618-4.94-11.394 0-6.763 9.406-12.158 28.020-16.315 21.255-4.613 36.496-8.621 45.883-11.849 2.463-0.931 4.613-1.696 6.161-2.462 18.942-8.932 28.328-22.495 28.328-40.654 0-22.164-9.241-38.334-27.563-48.489-1.736-0.978-4.010-2.112-6.335-3.154l-0.592-0.237c-11.849-5.085-25.704-7.693-41.253-7.693-23.243 0-42.037 4.157-56.347 12.324-9.004 5.232-15.733 11.811-20.216 19.742-4.485 7.931-6.727 17.191-6.727 27.82h46.796c0-8.004 2.934-14.328 8.621-18.633 5.706-4.466 15.404-6.781 29.095-6.781 10.317 0 18.010 2.169 23.095 6.472 4.011 3.39 5.852 7.092 5.852 11.393 0 7.237-9.224 12.925-27.564 16.935-27.396 5.851-44.642 10.626-51.717 14.018-18.776 8.769-28.017 22.311-28.017 41.106 0 15.076 4.775 27.856 14.621 38.319 12.323 13.090 30.789 19.561 55.271 19.561 20.162 0 36.331-2.936 48.49-8.623 1.076-0.455 2.008-0.929 2.935-1.55 8.769-4.758 15.384-11.083 19.816-18.941 4.429-7.836 6.653-17.24 6.653-28.162zM994.652 336.102c0 0.929-0.146 1.695-0.621 2.314-0.455 0.766-1.075 1.241-1.987 1.531-0.619 0.166-1.551 0.312-2.935 0.475h-7.075v-8.622h7.073c2.007 0.146 3.39 0.455 4.156 1.221 0.929 0.784 1.385 1.858 1.385 3.080zM998.352 340.732c0.864-1.123 1.385-2.55 1.385-4.098 0-0.021 0-0.042 0-0.063v0.003c0-2.151-0.766-4.009-2.314-5.541-1.534-1.55-3.537-2.479-5.998-2.623 1.075-0.455 1.84-0.932 2.461-1.534l4.301-5.705 3.389-5.689h-5.541l-2.623 4.613c-1.678 2.916-3.064 5.087-4.302 6.161-0.172 0.186-0.378 0.339-0.607 0.45l-0.012 0.005-3.683 1.076h-2.772v-12.304h-4.63v28.928h10.007c0.621 0 1.24-0.146 1.696-0.146 2.463 0 4.301-0.309 5.541-0.764 1.534-0.474 2.774-1.385 3.702-2.771zM1011.436 330.249c0 4.011-0.929 7.693-2.934 11.248-1.989 3.502-4.812 6.324-8.207 8.256l-0.107 0.056c-3.534 1.843-7.236 2.919-10.936 2.919h-0.146c-3.701 0-7.382-1.076-10.919-2.919-3.511-1.982-6.34-4.806-8.273-8.205l-0.056-0.107c-1.987-3.555-3.064-7.237-3.064-11.248 0-3.846 1.077-7.529 3.063-11.083 1.86-3.374 4.631-6.163 8.167-8.149 3.535-2.007 7.239-2.935 11.083-2.935h0.146c3.864 0 7.546 0.929 11.102 2.935 3.535 1.987 6.306 4.775 8.149 8.149 2.004 3.555 2.934 7.237 2.934 11.083zM1015.903 330.249c0-4.466-1.093-8.932-3.555-13.235-2.296-4.301-5.541-7.549-9.841-9.843-4.321-2.479-8.623-3.555-13.255-3.555h-0.146c-4.613 0-8.931 1.076-13.235 3.555-4.32 2.297-7.546 5.541-9.862 9.843-2.461 4.301-3.534 8.769-3.534 13.236 0 4.775 1.075 9.239 3.534 13.56 2.461 4.301 5.706 7.529 10.008 9.843 4.32 2.317 8.621 3.392 13.088 3.535h0.146c4.466 0 8.786-1.221 13.088-3.535 4.32-2.317 7.71-5.541 10.008-9.843 2.461-4.318 3.555-8.783 3.555-13.561zM754.025 547.781l126.402-210.604h-203.062l-212.136 353.468 149.010 89.597 139.783-232.46zM845.785 190.94v-86.37h-42.032v9.55c-13.863-9.174-30.88-14.637-49.173-14.637-0.030 0-0.060 0-0.090 0h-0.469c-50.185 0.31-90.983 41.272-90.983 91.457s40.798 91.127 90.983 91.44h0.474c0.021 0 0.046 0 0.071 0 18.296 0 35.317-5.457 49.524-14.831l-0.337 0.209v10.008h42.036v-86.826zM803.749 181.388v19.086c-4.466 23.097-24.938 40.651-49.259 40.651h-0.474c-27.544-0.164-49.875-22.64-49.875-50.183 0-27.564 22.331-50.040 49.875-50.35h0.474c24.32-0.001 44.792 17.7 49.259 40.796zM648.42 190.94v-86.37h-42.019v9.55c-14.328-9.241-31.102-14.637-49.275-14.637h-0.455c-50.185 0.31-90.983 41.272-90.983 91.457s40.798 91.127 90.983 91.44h0.455c18.175 0 34.945-5.398 49.275-14.622v69.419h42.019v-146.236zM606.401 181.388v19.086c-4.466 23.097-24.957 40.651-49.275 40.651h-0.455c-27.564-0.164-49.876-22.64-49.876-50.183 0-27.564 22.314-50.040 49.876-50.35h0.455c24.318-0.001 44.808 17.7 49.275 40.796zM556.671 420.012l49.565-82.836h-202.912l-117.595 195.675 4.922 2.916 144.25 86.846 121.772-202.6zM403.489 282.381h45.719v-177.81h-45.719zM403.489 336.265h45.719v-40.177h-45.719zM382.543 190.94v-86.37h-42.019v9.55c-14.309-9.241-31.245-14.637-49.42-14.637h-0.455c-50.185 0.31-90.983 41.272-90.983 91.457s40.798 91.127 90.983 91.44h0.455c18.175 0 35.11-5.398 49.42-14.622v69.419h42.019v-146.236zM340.525 181.388v19.086c-4.466 23.097-24.937 40.651-49.42 40.651h-0.455c-27.564-0.164-49.876-22.64-49.876-50.183 0-27.564 22.314-50.040 49.876-50.35h0.455c24.483-0.001 44.955 17.7 49.42 40.796zM290.648 406.466l41.565-69.29h-203.057l-22.788 38.029 149.171 89.595 35.11-58.335zM183.188 190.94v-86.37h-42.020v9.55c-14.328-9.241-31.263-14.637-49.42-14.637h-0.474c-50.022 0.308-90.819 41.272-90.819 91.457s40.798 91.127 90.819 91.44h0.474c18.156 0 35.092-5.398 49.42-14.622v10.008h42.019v-86.826zM141.168 181.388v19.086c-4.466 23.097-24.938 40.651-49.42 40.651h-0.474c-27.399-0.164-49.711-22.64-49.711-50.183 0-27.564 22.312-50.040 49.711-50.35h0.474c24.481-0.001 44.955 17.7 49.42 40.796z" />
<glyph unicode="&#xe902;" glyph-name="denglu2" d="M511.939 482.466c131.2 0 237.627 106.517 237.627 237.627 0 131.17-106.427 237.627-237.627 237.627-131.17 0-237.627-106.457-237.627-237.627 0-131.111 106.457-237.627 237.627-237.627zM571.345 363.653c-237.627 0-534.659-79.307-534.659-237.627v-178.22h950.504v178.22c0.001 158.319-257.408 237.627-415.845 237.627z" />
<glyph unicode="&#xe903;" glyph-name="icon--copy" d="M268.026 25.691c-64.736 0.092-117.189 52.545-117.281 117.272v610.065c0.092 64.736 52.545 117.189 117.272 117.281h488.037c64.736-0.092 117.189-52.545 117.281-117.272v-609.984c-0.092-64.736-52.545-117.189-117.272-117.281h-0.009zM268.026 818.667c-36.277-0.046-65.674-29.442-65.719-65.715v-609.979c0.046-36.277 29.442-65.674 65.715-65.719h488.032c36.277 0.046 65.674 29.442 65.719 65.715v0.004l0.001 610.055c-0.046 36.277-29.442 65.674-65.715 65.719h-0.004zM318.944 422.179c-0.431-0.026-0.934-0.040-1.441-0.040-14.261 0-25.821 11.561-25.821 25.821s11.561 25.821 25.821 25.821c0.507 0 1.011-0.015 1.51-0.043l-0.069 0.003h386.111c0.431 0.026 0.934 0.040 1.441 0.040 14.261 0 25.821-11.561 25.821-25.821s-11.561-25.821-25.821-25.821c-0.507 0-1.011 0.015-1.51 0.043l0.069-0.003zM318.944 300.232c-0.966-0.128-2.083-0.201-3.216-0.201-14.261 0-25.821 11.561-25.821 25.821s11.561 25.821 25.821 25.821c1.134 0 2.251-0.073 3.346-0.215l-0.129 0.014h263.44c14.261 0 25.821-11.561 25.821-25.821s-11.561-25.821-25.821-25.821v0zM318.944 544.528c-14.261 0-25.821 11.561-25.821 25.821s11.561 25.821 25.821 25.821h386.111c14.261 0 25.821-11.561 25.821-25.821s-11.561-25.821-25.821-25.821v0z" />
<glyph unicode="&#xe904;" glyph-name="icongou" d="M495.326 209.929l-68.044-68.044c-4.776-4.776-12.591-4.776-17.367 0l-339.354 339.354c-4.776 4.776-4.776 12.591 0 17.366l68.044 68.044c4.776 4.776 12.591 4.776 17.367 0l339.354-339.354c4.776-4.775 4.776-12.59 0-17.366zM409.225 141.885l-68.044 68.044c-4.776 4.776-4.776 12.591 0 17.366l526.423 526.423c4.776 4.776 12.591 4.776 17.366 0l68.044-68.044c4.776-4.776 4.776-12.591 0-17.366l-526.423-526.423c-4.776-4.776-12.591-4.776-17.366 0z" />
<glyph unicode="&#xe905;" glyph-name="jiang-copy" d="M3.19 476.71h861.308v-79.751h-861.308v79.751zM823.028 556.461l200.972-118.031-200.972-121.221v239.252z" />
<glyph unicode="&#xe906;" glyph-name="liaotian" d="M878.136 882.29h-732.324c-67.41 0-122.050-53.513-122.050-119.565v-478.77c0-65.993 41.083-126.021 108.499-126.021h253.159l126.582-144.869 126.578 144.867h253.159c67.41 0 108.499 60.029 108.499 126.021l0.002 478.772c0 66.042-54.69 119.565-122.104 119.565zM258.834 455.598c-29.956 0-54.24 24.307-54.24 54.348 0 29.999 24.284 54.302 54.24 54.302 29.965 0 54.254-24.303 54.254-54.302-0.004-30.036-24.289-54.348-54.254-54.348zM512.002 455.598c-29.966 0-54.249 24.307-54.249 54.348 0 29.999 24.282 54.302 54.249 54.302 29.961 0 54.25-24.303 54.25-54.302 0-30.036-24.289-54.348-54.25-54.348zM765.156 455.598c-29.971 0-54.25 24.307-54.25 54.348 0 29.999 24.279 54.302 54.25 54.302 29.966 0 54.25-24.303 54.25-54.302 0.004-30.036-24.284-54.348-54.25-54.348z" />
<glyph unicode="&#xe907;" d="M506.055 79.807c0-43.506-63.616-78.773-142.090-78.773s-142.089 35.268-142.089 78.773 63.616 78.773 142.090 78.773 142.089-35.268 142.089-78.773zM659.44 158.58c-78.474 0-142.090-35.268-142.090-78.773s63.617-78.773 142.090-78.773 142.090 35.268 142.090 78.773-63.617 78.773-142.090 78.773z" />
<glyph unicode="&#xe908;" d="M825.904 457.622s-10.753 11.024-22.294 21.221v125.922c0 161.052-130.559 291.61-291.611 291.61s-291.61-130.558-291.61-291.61v-125.922c-11.54-10.197-22.294-21.22-22.294-21.22-19.025-28.538-64.208-102.258-64.208-171.816s19.025-81.449 26.16-82.044c6.616-0.551 31.13 6.064 60.262 50.655 39.426-131.1 154.97-226.037 291.393-226.037 136.64 0 252.337 95.236 291.584 226.658 29.31-45.151 54.020-51.83 60.668-51.276 7.134 0.595 26.159 12.486 26.159 82.044s-45.184 143.278-64.209 171.815z" />
<glyph unicode="&#xe909;" d="M297.455 407.683c-2.211-15.304-3.473-32.976-3.473-50.943 0-0.065 0-0.13 0-0.196v0.010c0-159.246 99.199-288.34 221.567-288.34s221.567 129.094 221.567 288.34c0 0.052 0 0.113 0 0.175 0 17.971-1.262 35.647-3.703 52.944l0.23-1.99h-436.188zM435.307 762.609c-32.506 0-58.857-35.734-58.857-79.813 0-44.080 26.35-79.814 58.857-79.814s58.858 35.734 58.858 79.814c0 44.080-26.352 79.813-58.858 79.813zM445.117 649.949c-11.82 0-21.403 14.639-21.403 32.698s9.582 32.699 21.403 32.699c11.82 0 21.402-14.64 21.402-32.699s-9.582-32.699-21.402-32.699zM590.477 762.609c-32.507 0-58.858-35.734-58.858-79.813s26.351-79.814 58.857-79.814 58.858 35.734 58.858 79.814c-0.001 44.080-26.352 79.813-58.858 79.813zM600.409 679.822l-0.031-0.005c0-0.022 0.023-0.034 0.023-0.056 0-0.896-0.726-1.623-1.623-1.623-0.738 0-1.26 0.545-1.455 1.22l-0.062-0.010v-0.15c-3.749 9.332-10.384 15.636-18.080 15.636-7.693 0-14.325-6.297-18.075-15.621l-0.059 0.037-0.055 0.012c-0.264-0.558-0.723-1.003-1.38-1.003-0.001 0-0.001 0-0.002 0-0.91 0-1.648 0.738-1.648 1.648 0 0 0 0.001 0 0.001v0c0 0.016 0.018 0.025 0.018 0.040l-0.036 0.009c-0.058 0.895-0.166 1.768-0.166 2.688 0 18.060 9.582 32.699 21.402 32.699s21.403-14.64 21.403-32.699c0-0.966-0.111-1.884-0.174-2.823z" />
<glyph unicode="&#xe90a;" d="M281.188 423.734c-5.35-26.753-16.646-146.845-11.296-173.598s27.855-22.286 60.046-22.592c31.212-0.297 67.775-8.918 68.37 30.32s0.594 116.525 9.512 145.062c8.917 28.537-126.632 20.808-126.632 20.808z" />
<glyph unicode="&#xe90b;" d="M274.071 366.412l125.538-40.586c1.090 30.821 3.295 61.37 8.211 77.101 8.918 28.537-126.632 20.808-126.632 20.808-1.948-9.74-4.684-31.851-7.117-57.323z" />
<glyph unicode="&#xe90c;" d="M512.595 492.104c97.846 0 177.166 35.672 177.166 57.669 0 16.646-79.32 33.888-177.166 33.888s-177.166-15.458-177.166-33.888c0-20.809 79.319-57.669 177.166-57.669z" />
<glyph unicode="&#xe90d;" d="M514.378 470.701s112.363-1.19 202.136 36.86c89.771 38.050 88.88 42.36 98.69 42.36s21.402-14.124 26.307-39.612c4.904-25.487 10.701-45.552-10.256-58.038-20.956-12.484-158.29-93.19-313.013-93.19h-7.729c-154.723 0-292.057 80.706-313.013 93.19s-15.16 32.55-10.255 58.038c4.904 25.488 16.497 39.611 26.307 39.611s8.918-4.31 98.69-42.358 202.135-36.862 202.135-36.862z" />
<glyph unicode="&#xe90e;" horiz-adv-x="1025" d="M852.182 362.425c-21.863 65.729-89.023 89.737-104.313 91.164v0.003c-15.291 1.429-29.15 9.861-19.006 27.294 10.148 17.434 28.864 68.162-7.141 103.884-36.012 35.867-114.752 22.292-170.479-0.859-55.586-23.148-52.584-7.003-50.871 8.861 1.857 16.718 31.865 110.173-59.874 121.461-120.176 14.717-274.359-134.037-328.805-219.776-82.308-129.461-69.305-217.058-69.305-217.058h0.572c9.861-120.892 187.91-217.201 406.11-217.201 187.624 0 345.664 71.308 392.394 168.189 0 0 0.141 0.428 0.567 1.146 4.86 10.427 8.577 21.005 10.866 32.006 6.57 26.008 11.576 63.727-0.716 100.886zM422.069 113.070c-155.331 0-281.365 83.454-281.365 186.336 0 102.885 125.892 186.337 281.365 186.337 155.326 0 281.362-83.452 281.362-186.337 0-103.025-126.036-186.336-281.362-186.336z" />
<glyph unicode="&#xe90f;" horiz-adv-x="1025" d="M804.606 526.038c2.852-1.287 5.855-1.857 8.858-1.857 8.858 0 17.434 5.288 21.005 14.004 5.86 13.861 8.857 28.576 8.857 43.869 0 62.016-50.438 112.46-112.461 112.46-15.146 0-29.863-3-43.727-8.857-11.574-4.861-17.001-18.292-12.147-30.010 4.861-11.574 18.292-17.005 30.007-12.147 8.29 3.432 17.007 5.29 26.011 5.29 36.866 0 66.73-30.010 66.73-66.733 0-9.004-1.711-17.72-5.288-26.006-4.995-11.717 0.427-25.149 12.147-30.005l0.008-0.008z" />
<glyph unicode="&#xe910;" horiz-adv-x="1025" d="M729.582 834.839c-25.578 0-50.871-3.717-75.163-10.86-18.148-5.428-28.435-24.434-23.148-42.582 5.427-18.15 24.433-28.438 42.586-23.151 16.663 5.078 35.815 8.002 55.65 8.002 0.027 0 0.053 0 0.080 0h-0.004c107.602 0 195.199-87.598 195.199-195.198 0-19.29-2.863-38.436-8.291-56.728-5.426-18.15 4.715-37.298 22.862-42.726 3.29-1.002 6.715-1.429 10.003-1.429 14.717 0 28.295 9.576 32.868 24.291 7.431 24.719 11.288 50.441 11.288 76.592-0.14 145.472-118.462 263.788-263.929 263.788z" />
<glyph unicode="&#xe911;" horiz-adv-x="1025" d="M396.060 417.724c-82.88 0-150.042-58.728-150.042-131.323 0-72.587 67.159-131.323 150.042-131.323 82.88 0 150.042 58.734 150.042 131.323 0.001 72.593-67.16 131.323-150.042 131.323zM347.046 201.095c-29.008 0-52.583 23.575-52.583 52.583s23.578 52.583 52.583 52.583c29.012 0 52.585-23.578 52.585-52.583s-23.577-52.583-52.585-52.583zM445.36 295.831c-6.287-11.001-19.005-15.576-28.293-10.142-9.286 5.287-11.574 18.575-5.287 29.576 6.287 11.007 19.005 15.581 28.292 10.148 9.288-5.429 11.574-18.72 5.288-29.582z" />
<glyph unicode="&#xe912;" glyph-name="weixin" d="M512-64c-282.77 0-512 229.23-512 512s229.23 512 512 512 512-229.23 512-512-229.23-512-512-512zM619.91 562.371h20.090c-20.090 94.744-115.566 162.962-225.304 162.962-124.002 0-222.696-86.040-222.696-198.607 0-65.097 34.572-115.492 89.43-156.94l-23.114-71.12 77.995 41.448c23.062-6.439 49.769-10.675 77.282-11.778l0.688-0.022h20.114c-3.851 11.904-6.070 25.601-6.070 39.815 0 2.693 0.080 5.367 0.237 8.020l-0.017-0.366c0.862 52.667 22.676 100.076 57.445 134.391l0.021 0.021c32.733 32.31 77.729 52.265 127.385 52.265 2.008 0 4.009-0.033 6.001-0.097l-0.29 0.007h0.804zM504.637 618.667c15.848 0 28.696-14.288 28.696-31.915s-12.848-31.915-28.696-31.915c-17.652-1.95-33.402 12.313-35.304 31.94 0 22.284 17.457 31.89 34.719 31.89h0.585zM333.605 554.789c-17.555-1.463-33.012 12.653-34.938 31.89 1.926 19.212 17.383 33.329 34.938 31.89 16.042 0 29.062-14.287 29.062-31.915 0-17.603-13.020-31.89-29.062-31.89zM832 385.195c0 92.233-90.136 169.472-192 169.472-107.764 0-192-77.24-192-169.448 0-92.257 84.456-169.496 192-169.496 24.255 1.172 47.085 5.429 68.699 12.394l-1.871-0.521 60.758-35.596-17.408 59.538c49.42 35.596 81.017 83.286 81.017 133.852l0.805-0.195zM573.562 405.48c-10.435 0-18.895 9.484-18.895 21.187s8.46 21.211 18.895 21.211c11.727 1.39 22.308-7.997 23.771-21.114-1.39-13.214-11.97-22.698-23.771-21.284zM701.562 405.382c-10.435 0-18.895 9.509-18.895 21.212 0 11.751 8.46 21.26 18.895 21.26 11.727 1.414 22.308-7.997 23.771-21.139-2.194-12.921-12.58-22.040-24.259-21.333h0.488z" />
<glyph unicode="&#xe913;" glyph-name="wenhao" d="M192 640c0 64 12.8 115.2 25.6 147.2s38.4 64 70.4 89.6c32 32 64 51.2 108.8 64 38.4 12.8 76.8 19.2 121.6 19.2 89.6 0 160-25.6 224-76.8 57.6-51.2 89.6-115.2 89.6-198.4 0-38.4-12.8-70.4-25.6-102.4s-44.8-70.4-96-115.2-70.4-76.8-89.6-96-25.6-44.8-38.4-70.4-6.4-44.8-6.4-108.8h-128c0 64 6.4 96 12.8 128s19.2 57.6 38.4 83.2 38.4 57.6 83.2 102.4 76.8 76.8 89.6 96c12.8 19.2 25.6 51.2 25.6 96s-19.2 76.8-51.2 108.8-76.8 51.2-134.4 51.2c-128 0-192-89.6-192-217.6h-128zM576-64h-128v128h128v-128z" />
</font>
</defs>
</svg>
